<svg t="1604475501055" class="icon" viewBox="0 0 1024 1024" version="1.1" xmlns="http://www.w3.org/2000/svg" p-id="935" width="200" height="200"><path d="M75.09333333 75.09333333h873.81333334a48.54518557 48.54518557 0 0 1 48.54518556 48.54518557v776.7229622a48.54518557 48.54518557 0 0 1-48.54518556 48.54518557H75.09333333a48.54518557 48.54518557 0 0 1-48.54518556-48.54518557V123.6385189a48.54518557 48.54518557 0 0 1 48.54518556-48.54518557z m194.18074112 606.81481444v-194.18073998l97.09037 97.09036999 97.09036998-97.09036999v194.18073998h97.09037114v-339.81629554h-97.09037114l-97.09036998 97.09036999-97.09037-97.09036999H172.18370333v339.81629554h97.09037112z m533.99703666-145.63555556v-194.18073998h-97.09036999v194.18073998h-97.09037113l145.63555556 145.63555556 145.63555555-145.63555556h-97.09036999z" p-id="936"></path></svg>